<svg width="34" height="34" viewBox="0 0 34 34" fill="none" xmlns="http://www.w3.org/2000/svg">
<path d="M15.4063 17C15.4063 17.4227 15.5742 17.8281 15.8731 18.127C16.1719 18.4258 16.5773 18.5938 17 18.5938C17.4227 18.5938 17.8281 18.4258 18.127 18.127C18.4258 17.8281 18.5938 17.4227 18.5938 17C18.5938 16.5773 18.4258 16.1719 18.127 15.873C17.8281 15.5742 17.4227 15.4062 17 15.4062C16.5773 15.4062 16.1719 15.5742 15.8731 15.873C15.5742 16.1719 15.4063 16.5773 15.4063 17ZM22.0469 17C22.0469 17.4227 22.2148 17.8281 22.5137 18.127C22.8126 18.4258 23.2179 18.5938 23.6406 18.5938C24.0633 18.5938 24.4687 18.4258 24.7676 18.127C25.0665 17.8281 25.2344 17.4227 25.2344 17C25.2344 16.5773 25.0665 16.1719 24.7676 15.873C24.4687 15.5742 24.0633 15.4062 23.6406 15.4062C23.2179 15.4062 22.8126 15.5742 22.5137 15.873C22.2148 16.1719 22.0469 16.5773 22.0469 17ZM8.76563 17C8.76563 17.4227 8.93354 17.8281 9.23243 18.127C9.53131 18.4258 9.93669 18.5938 10.3594 18.5938C10.7821 18.5938 11.1874 18.4258 11.4863 18.127C11.7852 17.8281 11.9531 17.4227 11.9531 17C11.9531 16.5773 11.7852 16.1719 11.4863 15.873C11.1874 15.5742 10.7821 15.4062 10.3594 15.4062C9.93669 15.4062 9.53131 15.5742 9.23243 15.873C8.93354 16.1719 8.76563 16.5773 8.76563 17ZM30.7195 11.2359C29.9691 9.45293 28.8934 7.85254 27.5221 6.47793C26.1604 5.11128 24.5439 4.02496 22.7641 3.28047C20.9379 2.51348 18.9988 2.125 17 2.125H16.9336C14.9215 2.13496 12.9725 2.5334 11.1397 3.31699C9.3751 4.06911 7.77373 5.15737 6.42481 6.52109C5.0668 7.89238 4.00098 9.48613 3.26387 11.2625C2.5002 13.102 2.11504 15.0576 2.12501 17.0697C2.13627 19.3756 2.68179 21.6475 3.71876 23.707V28.7539C3.71876 29.159 3.87967 29.5475 4.1661 29.8339C4.45254 30.1203 4.84102 30.2812 5.2461 30.2812H10.2963C12.3559 31.3182 14.6277 31.8637 16.9336 31.875H17.0033C18.9922 31.875 20.9213 31.4898 22.7375 30.7361C24.5083 30.0005 26.1188 28.9269 27.4789 27.5752C28.8502 26.2172 29.9293 24.6301 30.683 22.8604C31.4666 21.0275 31.865 19.0785 31.875 17.0664C31.885 15.0443 31.4932 13.082 30.7195 11.2359ZM25.7025 25.7789C23.375 28.0832 20.2871 29.3516 17 29.3516H16.9436C14.9414 29.3416 12.9525 28.8436 11.1961 27.9072L10.9172 27.7578H6.24219V23.0828L6.09278 22.8039C5.15645 21.0475 4.6584 19.0586 4.64844 17.0564C4.63516 13.7461 5.9002 10.6383 8.2211 8.29746C10.5387 5.95664 13.6365 4.66172 16.9469 4.64844H17.0033C18.6635 4.64844 20.2738 4.97051 21.7912 5.60801C23.2721 6.22891 24.6002 7.12207 25.7424 8.26426C26.8813 9.40312 27.7777 10.7346 28.3986 12.2154C29.0428 13.7494 29.3648 15.3764 29.3582 17.0564C29.3383 20.3635 28.04 23.4613 25.7025 25.7789Z" fill="white"/>
</svg>
