<svg width="273" height="273" viewBox="0 0 273 273" fill="none" xmlns="http://www.w3.org/2000/svg">
<mask id="mask0_2_2074" style="mask-type:luminance" maskUnits="userSpaceOnUse" x="0" y="0" width="273" height="273">
<path fill-rule="evenodd" clip-rule="evenodd" d="M136.5 273C211.887 273 273 211.887 273 136.5C273 61.1131 211.887 0 136.5 0C61.1131 0 0 61.1131 0 136.5C0 211.887 61.1131 273 136.5 273Z" fill="white"/>
</mask>
<g mask="url(#mask0_2_2074)">
<mask id="mask1_2_2074" style="mask-type:luminance" maskUnits="userSpaceOnUse" x="28" y="86" width="218" height="63">
<path fill-rule="evenodd" clip-rule="evenodd" d="M28.5225 86.5664H245.967V148.8H28.5225V86.5664Z" fill="white"/>
</mask>
<g mask="url(#mask1_2_2074)">
<path fill-rule="evenodd" clip-rule="evenodd" d="M145.193 133.076C147.834 138.227 150.645 143.454 153.607 148.481C157.908 137.677 161.551 126.728 164.549 115.769C164.775 115.737 165.002 115.71 165.229 115.678C165.456 115.645 165.683 115.607 165.91 115.574C171.798 125.288 178.29 134.735 185.393 143.926C186.841 138.167 188.14 132.51 189.247 126.765C190.324 121.149 191.253 115.61 192.011 110.047C192.231 109.985 192.452 109.928 192.671 109.867C192.893 109.804 193.113 109.736 193.334 109.673C196.819 113.996 200.482 118.35 204.255 122.51C208.128 126.776 212.182 131.046 216.367 135.151C217.045 129.245 217.571 123.425 217.911 117.617C218.227 111.905 218.382 106.259 218.382 100.678C218.59 100.587 218.801 100.5 219.009 100.408C219.219 100.316 219.427 100.218 219.637 100.125C223.669 103.922 227.872 107.692 232.197 111.308C236.622 114.983 241.222 118.595 245.967 122.084C245.82 116.133 245.506 110.267 245.03 104.495C244.525 98.8049 243.85 93.1925 243.031 87.6861C243.225 87.5646 243.422 87.4465 243.616 87.324C243.807 87.2042 243.864 86.9508 243.744 86.7587C243.626 86.5668 243.375 86.5093 243.188 86.6283C235.487 91.5003 227.244 95.8834 218.685 99.6559C210.292 103.356 201.464 106.526 192.453 109.076C183.555 111.594 174.357 113.541 165.114 114.865C155.902 116.185 146.524 116.901 137.241 116.995C127.892 117.091 118.517 116.552 109.397 115.397C100.098 114.219 90.9451 112.387 82.1873 109.949C73.184 107.444 64.4845 104.267 56.332 100.507C47.917 96.6278 39.9664 92.0716 32.7022 86.9655C32.5182 86.8359 32.2662 86.8826 32.138 87.069C32.0109 87.2552 32.057 87.5113 32.2401 87.64C32.4241 87.769 32.6129 87.8929 32.7969 88.0216C31.6892 93.4454 30.7337 99.0412 30.0237 104.68C29.3261 110.416 28.7985 116.332 28.5222 122.257C33.4226 118.917 38.1009 115.517 42.6324 111.909C47.0734 108.35 51.2988 104.746 55.3879 100.966C55.5922 101.061 55.7923 101.16 55.9966 101.255C56.2016 101.349 56.4098 101.438 56.6149 101.532C56.3434 112.879 56.9089 124.407 58.2672 136.014C66.6271 127.952 74.3047 119.422 81.3186 110.552C81.5366 110.613 81.7538 110.68 81.9717 110.741C82.1906 110.801 82.4126 110.858 82.632 110.918C83.3987 116.464 84.3299 122.086 85.4733 127.605C86.637 133.298 87.9741 139.086 89.518 144.737C93.0812 140.02 96.4556 135.341 99.685 130.448C102.83 125.696 105.79 121.007 108.618 116.119C108.844 116.149 109.069 116.182 109.295 116.211C109.521 116.24 109.751 116.263 109.978 116.291C111.535 121.678 113.252 127.099 115.148 132.405C117.09 137.879 119.201 143.415 121.489 148.8C127.163 138.666 132.185 128.297 136.563 117.819C136.792 117.818 137.021 117.818 137.249 117.815C137.479 117.813 137.71 117.806 137.939 117.803C140.202 122.921 142.619 128.074 145.193 133.076Z" fill="#E8F0FC"/>
</g>
<path fill-rule="evenodd" clip-rule="evenodd" d="M191.943 178.864C183.134 176.355 174.622 173.2 166.645 169.487C158.408 165.653 150.624 161.17 143.508 156.163L143.046 156.838C143.226 156.964 143.41 157.087 143.591 157.212C142.447 162.614 141.457 168.177 140.698 173.798C139.954 179.512 139.385 185.382 139.046 191.298C143.903 187.945 148.559 184.504 153.045 180.912C157.451 177.347 161.665 173.701 165.711 169.947C165.91 170.041 166.106 170.139 166.306 170.232C166.507 170.325 166.712 170.415 166.914 170.507C166.742 176.046 166.715 181.74 166.931 187.37C167.157 193.132 167.547 199.043 168.168 204.891C172.386 200.763 176.405 196.62 180.269 192.316C184.049 188.083 187.643 183.827 191.084 179.466C191.298 179.527 191.51 179.594 191.724 179.654C191.938 179.716 192.156 179.772 192.37 179.832C193.072 185.342 193.92 190.976 194.978 196.502C196.065 202.169 197.316 207.945 198.764 213.633C202.313 208.92 205.683 204.21 208.892 199.396C212.025 194.661 214.992 189.911 217.803 185.117C218.023 185.147 218.243 185.182 218.465 185.212C218.687 185.242 218.911 185.268 219.135 185.297C220.611 190.656 222.236 196.089 224.035 201.439C225.885 206.903 227.902 212.414 230.086 217.883C232.959 212.73 235.666 207.566 238.209 202.395C240.686 197.283 243.007 192.163 245.174 187.045C245.401 187.047 245.627 187.052 245.851 187.052V186.231C236.677 186.223 227.499 185.606 218.573 184.398C209.47 183.168 200.51 181.306 191.943 178.864Z" fill="#E8F0FC"/>
<path fill-rule="evenodd" clip-rule="evenodd" d="M133.219 156.873C133.405 156.756 133.595 156.642 133.781 156.525L133.352 155.829C125.939 160.524 118.014 164.768 109.799 168.445C101.732 172.055 93.2593 175.175 84.6148 177.718C76.0774 180.229 67.2458 182.215 58.3642 183.622C49.5196 185.024 40.501 185.87 31.5576 186.139L31.581 186.96C31.8031 186.952 32.026 186.942 32.2472 186.935C34.5252 191.986 36.9514 197.051 39.5284 202.075C42.1712 207.181 44.9727 212.278 47.9313 217.351C49.9175 211.811 51.7474 206.282 53.4184 200.773C55.0399 195.349 56.5076 189.923 57.8302 184.532C58.0498 184.499 58.2703 184.468 58.4891 184.434C58.7085 184.399 58.9273 184.359 59.1469 184.324C62.0311 189.048 65.0659 193.765 68.2443 198.422C71.4987 203.151 74.9112 207.851 78.4778 212.508C79.7639 206.759 80.892 201.04 81.8636 195.361C82.7948 189.775 83.5686 184.203 84.2016 178.688C84.4139 178.627 84.6294 178.569 84.8417 178.506C85.054 178.443 85.2657 178.376 85.4796 178.313C88.9286 182.626 92.5299 186.912 96.2739 191.121C100.1 195.385 104.085 199.598 108.225 203.75C108.772 197.874 109.157 192.053 109.386 186.296C109.587 180.635 109.622 175.008 109.517 169.463C109.72 169.373 109.925 169.286 110.126 169.196C110.329 169.106 110.528 169.011 110.729 168.92C114.707 172.731 118.839 176.491 123.111 180.151C127.47 183.851 131.99 187.472 136.666 191.006C136.419 185.101 136.011 179.278 135.444 173.547C134.862 167.912 134.109 162.338 133.219 156.873Z" fill="#E8F0FC"/>
<path fill-rule="evenodd" clip-rule="evenodd" d="M192.198 208.203C192.198 206.412 190.764 204.96 188.996 204.96C187.226 204.96 185.794 206.412 185.794 208.203C185.794 209.994 187.226 211.447 188.996 211.447C190.764 211.447 192.198 209.994 192.198 208.203Z" stroke="black" stroke-linecap="round" stroke-linejoin="round"/>
<path fill-rule="evenodd" clip-rule="evenodd" d="M204.868 230.53C204.868 229.346 203.921 228.385 202.751 228.385C201.58 228.385 200.631 229.346 200.631 230.53C200.631 231.716 201.58 232.675 202.751 232.675C203.921 232.675 204.868 231.716 204.868 230.53Z" fill="#FD9E28"/>
<path fill-rule="evenodd" clip-rule="evenodd" d="M63.8003 81.1996C63.8003 80.0153 62.8521 79.0543 61.6827 79.0543C60.5116 79.0543 59.5635 80.0153 59.5635 81.1996C59.5635 82.3845 60.5116 83.3447 61.6827 83.3447C62.8521 83.3447 63.8003 82.3845 63.8003 81.1996Z" fill="#FD9E28"/>
<path fill-rule="evenodd" clip-rule="evenodd" d="M46.4364 170.587C46.4364 169.403 45.4874 168.442 44.318 168.442C43.1478 168.442 42.199 169.403 42.199 170.587C42.199 171.772 43.1478 172.732 44.318 172.732C45.4874 172.732 46.4364 171.772 46.4364 170.587Z" fill="#BAD0F7"/>
<path fill-rule="evenodd" clip-rule="evenodd" d="M108.164 77.4507C108.164 76.2656 107.216 75.3054 106.045 75.3054C104.875 75.3054 103.927 76.2656 103.927 77.4507C103.927 78.6348 104.875 79.5958 106.045 79.5958C107.216 79.5958 108.164 78.6348 108.164 77.4507Z" fill="#3C76D6"/>
<path fill-rule="evenodd" clip-rule="evenodd" d="M92.5187 81.4322C91.2861 80.7518 90.1232 79.8942 89.0803 78.8373C87.5851 77.324 86.4829 75.567 85.7505 73.6959L81.2861 78.2177C82.0177 80.0872 83.1289 81.8401 84.6224 83.3516C85.6645 84.4071 86.8242 85.2719 88.0551 85.9514L92.5187 81.4322Z" fill="#BAD0F7"/>
<path fill-rule="evenodd" clip-rule="evenodd" d="M195.719 239.631C195.047 240.878 194.2 242.055 193.157 243.113C191.662 244.624 189.927 245.743 188.08 246.482L192.545 251.005C194.39 250.264 196.12 249.139 197.615 247.627C198.657 246.572 199.51 245.396 200.182 244.15L195.719 239.631Z" fill="#2B9086"/>
<path fill-rule="evenodd" clip-rule="evenodd" d="M84.5693 184.022C85.0173 183.189 85.5831 182.403 86.2792 181.698C87.2767 180.688 88.4355 179.943 89.6681 179.448L86.6875 176.431C85.4557 176.925 84.301 177.676 83.3035 178.686C82.6082 179.39 82.0383 180.173 81.5903 181.006L84.5693 184.022Z" fill="#FD9E28"/>
<path fill-rule="evenodd" clip-rule="evenodd" d="M182.394 68.5029C183.291 68.2346 184.24 68.0836 185.225 68.0836C186.636 68.0836 187.975 68.3863 189.193 68.9189V64.6515C187.976 64.119 186.634 63.8228 185.225 63.8228C184.241 63.8228 183.291 63.9688 182.394 64.2363V68.5029Z" fill="#FC2B45"/>
<path fill-rule="evenodd" clip-rule="evenodd" d="M52.7642 117.332C53.663 117.064 54.611 116.913 55.5956 116.913C57.0065 116.913 58.3462 117.216 59.5641 117.749V113.481C58.347 112.948 57.0058 112.652 55.5956 112.652C54.6118 112.652 53.6622 112.798 52.7642 113.066V117.332Z" fill="#2B9086"/>
<path fill-rule="evenodd" clip-rule="evenodd" d="M206.83 159.385C206.565 158.475 206.415 157.515 206.415 156.518C206.415 155.089 206.714 153.733 207.242 152.5H203.027C202.501 153.732 202.208 155.09 202.208 156.518C202.208 157.514 202.352 158.476 202.617 159.385H206.83Z" fill="#FC2B45"/>
<path fill-rule="evenodd" clip-rule="evenodd" d="M61.8907 228.385C62.2439 229.762 62.7852 231.111 63.5445 232.392C64.6329 234.226 66.0494 235.736 67.6654 236.907L65.6711 239.331C63.8251 238.59 62.094 237.465 60.6004 235.954C59.5583 234.896 58.7051 233.723 58.0332 232.476L61.8907 228.385Z" fill="#FC2B45"/>
<path fill-rule="evenodd" clip-rule="evenodd" d="M223.856 146.546C223.502 147.922 222.96 149.272 222.202 150.553C221.112 152.388 219.696 153.896 218.08 155.068L220.075 157.493C221.921 156.751 223.65 155.626 225.144 154.113C226.187 153.058 227.04 151.885 227.713 150.637L223.856 146.546Z" fill="#3C76D6"/>
<path fill-rule="evenodd" clip-rule="evenodd" d="M194.963 81.1992C194.656 82.3939 194.187 83.566 193.528 84.6779C192.582 86.2715 191.352 87.5805 189.949 88.5989L191.68 90.7039C193.284 90.0597 194.786 89.083 196.083 87.77C196.988 86.8534 197.73 85.8341 198.312 84.7517L194.963 81.1992Z" fill="#BAD0F7"/>
<path fill-rule="evenodd" clip-rule="evenodd" d="M65.3167 162.656C66.2736 162.908 67.212 163.293 68.1027 163.835C69.3782 164.611 70.4268 165.621 71.2414 166.773L72.9268 165.351C72.4114 164.036 71.6295 162.801 70.5776 161.736C69.8442 160.994 69.028 160.385 68.1609 159.906L65.3167 162.656Z" fill="#3C76D6"/>
<path fill-rule="evenodd" clip-rule="evenodd" d="M178.297 201.517C178.297 201.356 178.287 201.197 178.285 201.038C178.292 200.533 178.297 200.034 178.297 199.538L178.25 199.525C177.304 174.682 160.579 146.546 137.836 146.546C115.093 146.546 96.5526 174.575 95.6061 199.417L95.5598 199.43C95.5598 199.926 95.5639 200.425 95.5712 200.928C95.5696 201.089 95.5598 201.248 95.5598 201.411H95.581C96.0056 224.249 103.551 247.444 107.547 262.577C109.015 268.131 109.275 273.931 108.375 279.609C107.723 283.726 107.121 288.962 107.121 294.257C107.121 314.879 118.568 360.602 118.568 360.602H136.477L136.705 204.2H138.969L161.624 360.602H181.523C181.523 360.602 181.746 324.084 181.746 304.929C181.746 299.43 180.952 290.666 179.477 283.773C178.294 278.25 175.275 269.103 175.397 263.451C175.797 245.009 177.85 224.416 178.276 201.517H178.297Z" fill="#111111"/>
<path fill-rule="evenodd" clip-rule="evenodd" d="M116.92 96.0847C113.063 91.6705 106.403 91.2577 102.045 95.1622L65.5327 127.873L64.9305 128.412C64.6346 128.68 64.3551 128.97 64.0909 129.285C60.8923 133.084 61.3413 138.789 65.0934 142.028L95.8116 168.544C98.5054 170.874 102.556 170.842 105.214 168.34C108.076 165.648 108.24 161.116 105.582 158.218L85.3464 136.165L115.636 111.467C115.752 111.372 115.896 111.249 116.01 111.148C120.369 107.243 120.775 100.498 116.92 96.0847Z" fill="#B3614E"/>
<path fill-rule="evenodd" clip-rule="evenodd" d="M96.3293 129.429L117.168 111.307C117.281 111.209 117.426 111.077 117.535 110.974C122.223 106.534 122.468 99.0868 118.084 94.3411C113.7 89.5943 106.346 89.3466 101.659 93.7863L81.4856 112.896C86.642 118.203 91.3576 123.93 96.3293 129.429Z" fill="#8B0800"/>
<path fill-rule="evenodd" clip-rule="evenodd" d="M207.802 108.64C205.475 105.449 201.034 104.772 197.884 107.129L184.794 127.441L171.539 95.3495C171.483 95.2248 171.408 95.0638 171.346 94.94C168.731 89.6756 162.397 87.5541 157.198 90.2016C151.999 92.8499 150.275 100.011 152.889 105.275L175.844 154.88C176.303 155.796 176.927 156.646 177.717 157.383C177.895 157.55 178.077 157.708 178.265 157.856C182.594 161.293 189.018 159.394 191.255 154.305C191.255 154.305 208.317 116.455 208.629 115.702C209.568 113.443 209.344 110.755 207.802 108.64Z" fill="#B3614E"/>
<path fill-rule="evenodd" clip-rule="evenodd" d="M181.215 117.323L172.093 94.9833C172.027 94.8231 171.943 94.628 171.869 94.4695C169.239 88.8416 162.602 86.4386 157.045 89.1009C151.488 91.7639 149.115 98.4842 151.745 104.111L162.172 126.43C168.687 123.791 174.933 120.5 181.215 117.323Z" fill="#8B0800"/>
<path fill-rule="evenodd" clip-rule="evenodd" d="M218.064 109.445H218.048C218.392 109.429 218.675 109.412 218.852 109.39C220.211 109.227 221.203 108.008 221.097 106.626L221.091 106.558C220.985 105.181 219.828 104.137 218.465 104.183C218.288 104.188 218.07 104.207 217.817 104.237C219.262 104.019 220.378 102.4 219.673 100.921L219.641 100.852C219.154 99.8308 218.096 99.2473 217 99.3449C216.966 99.3465 216.939 99.3441 216.903 99.3498C216.862 99.3557 216.819 99.3622 216.778 99.3679C216.768 99.3695 216.758 99.3687 216.748 99.3711C216.74 99.3728 216.731 99.3744 216.725 99.3752C214.869 99.6446 211.593 99.8652 208.749 100.452C209.043 99.4828 210.088 97.78 210.772 95.9943C211.538 93.9935 211.738 92.1593 210.825 91.1172C210.141 90.3359 209.585 90.6437 208.083 92.2077C204.917 95.5051 197.803 102.5 197.803 108.077C197.803 113.356 199.431 118.928 203.238 119.843C206.105 120.532 209.748 120.153 215.945 118.431C216.605 118.504 217.178 118.556 217.481 118.554C218.579 118.545 219.502 117.713 219.635 116.61C219.765 115.535 219.111 114.55 218.131 114.236C218.131 114.223 218.129 114.211 218.129 114.198L218.282 114.207C219.506 114.055 220.433 113.006 220.443 111.757C220.454 110.369 219.435 109.433 218.064 109.445Z" fill="#B3614E"/>
<path d="M213.054 113.932C211.695 113.779 210.569 114.992 210.803 116.358C210.966 117.294 211.732 118 212.667 118.072" stroke="#893B2E" stroke-linecap="round"/>
<path d="M203.238 119.843C200.926 119.288 199.518 117.179 198.74 114.409" stroke="#893B2E" stroke-linecap="round"/>
<path d="M210.742 101.028C209.477 101.447 208.59 102.219 208.774 103.478C208.982 104.878 210.131 105.422 211.178 105.241C211.889 105.118 212.989 104.949 214.105 104.782" stroke="#893B2E" stroke-linecap="round"/>
<path d="M211.027 105.252C209.348 105.357 208.214 106.882 208.813 108.475C209.222 109.564 210.245 109.851 211.386 109.706C211.956 109.633 212.983 109.59 214.106 109.556" stroke="#893B2E" stroke-linecap="round"/>
<path d="M211.479 109.695C210.098 109.786 209.153 110.98 209.546 112.325C209.815 113.247 210.664 113.867 211.614 113.831L214.105 113.971" stroke="#893B2E" stroke-linecap="round"/>
<path fill-rule="evenodd" clip-rule="evenodd" d="M164.823 88.4428C167.81 89.3645 163.883 150.966 156.699 153.19C147.687 155.979 124.931 155.786 116.918 152.161C109.26 149.07 102.298 92.7865 105.088 91.5095C120.616 84.4077 149.098 83.5903 164.823 88.4428Z" fill="#8B0800"/>
<mask id="mask2_2_2074" style="mask-type:luminance" maskUnits="userSpaceOnUse" x="118" y="23" width="41" height="45">
<path fill-rule="evenodd" clip-rule="evenodd" d="M118.924 23.2311H158.38V67.0003H118.924V23.2311Z" fill="white"/>
</mask>
<g mask="url(#mask2_2_2074)">
<path fill-rule="evenodd" clip-rule="evenodd" d="M158.103 40.9097C158.377 40.4254 158.336 39.8248 158.376 39.2552C158.414 38.7137 158.186 38.273 157.971 37.7248C157.771 37.215 158.001 36.4822 157.745 35.9291C157.51 35.422 156.757 35.161 156.471 34.6333C156.204 34.1377 155.97 33.6265 155.654 33.1241C155.351 32.6441 155.308 31.9801 154.958 31.505C154.621 31.0454 154.257 30.5925 153.872 30.1478C153.501 29.7161 153.177 29.2155 152.758 28.806C152.351 28.4079 151.592 28.4177 151.138 28.0477C150.697 27.6881 150.461 27.0621 149.975 26.7363C149.504 26.4219 149.118 25.9238 148.602 25.6474C148.103 25.3805 147.537 25.1975 146.996 24.9726C146.474 24.756 145.911 24.5953 145.35 24.4238C144.812 24.2595 144.252 24.0872 143.675 23.9682C143.126 23.8557 142.556 23.7048 141.969 23.6367C141.393 23.5693 140.805 23.914 140.275 23.878C139.692 23.8386 139.157 23.2362 138.628 23.2313C138.042 23.2256 137.474 23.4438 136.949 23.4766C136.359 23.5137 135.807 23.6555 135.29 23.7351C134.702 23.827 134.103 23.7647 133.602 23.9034C133.025 24.0642 132.707 24.8102 132.235 25.0235C131.687 25.2698 131.197 25.4208 130.774 25.7203C130.285 26.0675 129.68 26.197 129.333 26.5853C128.935 27.0325 128.503 27.4559 128.254 27.9147C127.962 28.4531 127.573 28.9708 127.426 29.4559C127.225 30.1182 127.646 30.9839 127.567 31.3795C127.035 31.5132 126.212 31.2842 125.64 31.5495C125.131 31.7866 124.514 32.0172 124.006 32.375C123.542 32.7016 123.24 33.3319 122.801 33.7709C122.399 34.1729 122.105 34.7089 121.744 35.2144C121.414 35.6773 120.896 36.0703 120.612 36.6266C120.354 37.1331 120.301 37.7741 120.093 38.3633C119.902 38.9007 119.44 39.4029 119.3 40.0127C119.173 40.5682 119.575 41.252 119.495 41.8715C119.422 42.4393 119.067 43.0014 119.038 43.6252C119.014 44.1602 118.961 44.7239 118.965 45.3034C118.948 45.3616 118.932 45.4207 118.926 45.4814C118.914 45.6399 118.947 45.8007 118.998 45.9632C119.028 46.3752 119.07 46.7928 119.105 47.2245C119.144 47.6734 119.119 48.1601 119.183 48.5777C119.171 48.6951 119.161 48.8132 119.172 48.9298C119.221 49.5019 119.5 50.0385 119.597 50.5949C119.695 51.1588 119.461 51.8006 119.606 52.347C119.752 52.8993 119.966 53.4492 120.158 53.9809C120.351 54.5185 120.511 55.0904 120.748 55.6042C120.986 56.1219 121.22 56.6701 121.501 57.1617C121.784 57.655 122.326 57.9989 122.648 58.4642C122.97 58.9303 123.307 59.393 123.668 59.8288C124.029 60.2638 124.329 60.7727 124.726 61.1746C125.124 61.5768 125.443 62.1012 125.874 62.4673C126.303 62.8324 126.98 62.8988 127.44 63.2264C127.9 63.553 128.344 63.9067 128.832 64.1931C129.316 64.4769 129.673 65.0563 130.183 65.2976C130.691 65.5373 131.377 65.3913 131.906 65.5864C132.431 65.7802 133.033 65.7014 133.578 65.8491C134.118 65.9951 134.541 66.7043 135.098 66.8027C135.647 66.9003 136.255 66.7206 136.819 66.7699C137.374 66.8182 137.941 67.0005 138.508 67.0005C139.077 67.0005 139.658 66.9973 140.213 66.948C140.778 66.8987 141.269 66.3103 141.818 66.2127C142.376 66.1141 143.065 66.6206 143.605 66.4745C144.151 66.3268 144.644 65.9385 145.169 65.7449C145.699 65.5496 146.133 65.1146 146.641 64.8742C147.15 64.633 147.587 64.2742 148.073 63.9904C148.56 63.7048 149.126 63.5612 149.585 63.2346C150.046 62.908 150.484 62.5508 150.913 62.1858C151.343 61.8188 151.613 61.2895 152.01 60.8884C152.407 60.4854 152.992 60.2654 153.354 59.8296C153.714 59.3938 153.971 58.8745 154.294 58.4084C154.616 57.9431 154.762 57.3759 155.044 56.8826C155.325 56.3921 156.112 56.1582 156.35 55.6411C156.587 55.1273 156.112 54.3124 156.304 53.7757C156.496 53.2432 156.932 52.8082 157.077 52.2551C157.222 51.7093 157.146 51.1266 157.244 50.5629C157.341 50.0065 157.444 49.4707 157.492 48.8994C157.54 48.3373 157.836 47.7907 157.836 47.2172C157.836 46.6419 157.566 46.0936 157.518 45.5315C157.47 44.9603 157.82 44.3415 157.723 43.7843C157.626 43.2206 157.233 42.7209 157.088 42.1743C157.074 42.1233 157.056 42.075 157.041 42.0241C157.461 41.7197 157.853 41.352 158.103 40.9097Z" fill="black"/>
</g>
<path fill-rule="evenodd" clip-rule="evenodd" d="M138.283 100.013H138.282C132.388 100.113 127.529 95.3555 127.429 89.3862L128.669 67.383L147.81 66.6157L148.299 88.9019C148.398 94.8712 144.176 99.9126 138.283 100.013Z" fill="#B3614E"/>
<path fill-rule="evenodd" clip-rule="evenodd" d="M128.316 73.6424C127.99 79.4484 132.723 84.4618 138.446 83.9604C138.697 83.9382 138.948 83.907 139.202 83.8667C143.111 83.2406 146.387 79.8234 148.052 74.6986L147.81 66.6151L128.669 67.3832L128.316 73.6424Z" fill="#893B2E"/>
<path fill-rule="evenodd" clip-rule="evenodd" d="M152.036 42.7829C152.099 42.9003 152.151 43.0233 152.211 43.1423C152.215 43.1423 152.219 43.1423 152.222 43.1415C152.163 43.0209 152.097 42.9027 152.036 42.7829Z" fill="#B3614E"/>
<path fill-rule="evenodd" clip-rule="evenodd" d="M155.449 54.7395C154.7 54.471 153.857 55.1786 153.051 56.2765L153.624 53.4281C154.355 49.7925 153.765 46.2038 152.211 43.1429C151.521 43.1896 150.828 43.2224 150.127 43.2224C143.38 43.2224 136.541 40.1992 131.355 36.3577C127.329 38.4618 124.242 42.3188 123.267 47.164C122.915 48.9096 122.878 50.7109 123.092 52.3834L123.741 57.2703C122.751 55.6472 121.639 54.3964 120.684 54.7395C118.294 55.597 117.248 58.8378 118.348 61.9767C119.202 64.4206 121.677 65.8773 124.615 65.728C124.7 65.7237 124.776 65.7001 124.857 65.686L125.246 68.6208C126.184 75.6939 132.606 80.657 139.59 79.7076C145.112 78.9567 149.333 74.7115 150.394 69.4807L151.162 65.6663C151.277 65.6933 151.392 65.7213 151.517 65.728C154.454 65.8773 156.93 64.4206 157.786 61.9767C158.884 58.8378 157.838 55.597 155.449 54.7395Z" fill="#B3614E"/>
<path fill-rule="evenodd" clip-rule="evenodd" d="M138.449 68.9533C136.29 68.9533 134.23 68.5373 132.321 67.8118C133.448 70.0866 135.765 71.6507 138.449 71.6507C141.134 71.6507 143.452 70.0866 144.579 67.8118C142.669 68.5373 140.61 68.9533 138.449 68.9533Z" fill="black"/>
<path fill-rule="evenodd" clip-rule="evenodd" d="M143.163 68.2818C141.664 68.7127 140.086 68.9531 138.45 68.9531C136.814 68.9531 135.236 68.7127 133.737 68.2818C134.966 69.4694 136.617 70.2103 138.45 70.2103C140.283 70.2103 141.934 69.4694 143.163 68.2818Z" fill="white"/>
<path d="M136.096 65.0514C137.626 65.51 139.284 65.5092 140.812 65.048" stroke="#893B2E" stroke-linecap="round"/>
<path fill-rule="evenodd" clip-rule="evenodd" d="M137.017 57.2148C137.017 53.577 134.105 50.6284 130.513 50.6284C126.921 50.6284 124.009 53.577 124.009 57.2148C124.009 60.8529 126.921 63.8015 130.513 63.8015C134.105 63.8015 137.017 60.8529 137.017 57.2148Z" stroke="#F3EDF7" stroke-linecap="round"/>
<path fill-rule="evenodd" clip-rule="evenodd" d="M152.891 57.2148C152.891 53.577 149.979 50.6284 146.387 50.6284C142.795 50.6284 139.882 53.577 139.882 57.2148C139.882 60.8529 142.795 63.8015 146.387 63.8015C149.979 63.8015 152.891 60.8529 152.891 57.2148Z" stroke="#F3EDF7" stroke-linecap="round"/>
<path d="M136.657 54.5505C137.891 53.8973 139.126 53.8973 140.36 54.5505" stroke="#F3EDF7" stroke-linecap="round"/>
<path d="M148.331 55.9108C147.393 55.2742 145.502 55.2815 144.56 55.9108" stroke="black" stroke-linecap="round" stroke-linejoin="round"/>
<path d="M132.458 55.9108C131.519 55.2742 129.629 55.2815 128.686 55.9108" stroke="black" stroke-linecap="round" stroke-linejoin="round"/>
<path fill-rule="evenodd" clip-rule="evenodd" d="M132.41 48.9524C131.808 49.2774 131.177 49.3963 130.55 49.4685L128.69 49.6481C127.468 49.7828 126.289 49.947 125.13 50.3433L125.122 50.3465C124.906 50.4197 124.674 50.3031 124.601 50.0847C124.545 49.9156 124.602 49.7343 124.732 49.6286C125.794 48.7611 127.105 48.254 128.371 47.9183C129.007 47.741 129.644 47.6188 130.27 47.4898C130.901 47.3808 131.527 47.3234 132.18 47.4529L132.188 47.4546C132.618 47.5399 132.899 47.9619 132.814 48.3976C132.766 48.6429 132.61 48.8416 132.41 48.9524Z" fill="black"/>
<path fill-rule="evenodd" clip-rule="evenodd" d="M144.868 47.4527C145.522 47.3231 146.147 47.3814 146.777 47.4896C147.404 47.6185 148.041 47.7416 148.677 47.918C149.944 48.2536 151.254 48.7609 152.316 49.6281C152.492 49.7726 152.52 50.0344 152.378 50.2135C152.267 50.352 152.086 50.3997 151.928 50.3463L151.918 50.343C150.759 49.9474 149.58 49.7826 148.358 49.6479L146.498 49.469C145.871 49.3961 145.24 49.2777 144.639 48.952C144.252 48.7427 144.107 48.2562 144.312 47.8638C144.429 47.644 144.633 47.5012 144.856 47.4551L144.868 47.4527Z" fill="black"/>
<path fill-rule="evenodd" clip-rule="evenodd" d="M123.925 65.394C123.925 64.855 123.493 64.4176 122.961 64.4176C122.428 64.4176 121.996 64.855 121.996 65.394C121.996 65.9333 122.428 66.3707 122.961 66.3707C123.493 66.3707 123.925 65.9333 123.925 65.394Z" fill="#FD9E28"/>
<path fill-rule="evenodd" clip-rule="evenodd" d="M154.904 65.394C154.904 64.855 154.472 64.4176 153.939 64.4176C153.406 64.4176 152.974 64.855 152.974 65.394C152.974 65.9333 153.406 66.3707 153.939 66.3707C154.472 66.3707 154.904 65.9333 154.904 65.394Z" fill="#FD9E28"/>
<path d="M107.082 119.728L105.533 109.987" stroke="black" stroke-linecap="round" stroke-linejoin="round"/>
<path d="M164.302 123.317L165.773 107.337" stroke="black" stroke-linecap="round" stroke-linejoin="round"/>
<path fill-rule="evenodd" clip-rule="evenodd" d="M119.83 161.51C117.327 159.766 112.205 155.818 112.205 155.818C111.592 155.481 110.8 155.428 110.068 155.592C110.063 155.589 110.059 155.586 110.054 155.583C105.816 156.592 102.263 158.62 100.337 160.961C98.4104 163.301 95.0213 167.687 97.7175 170.643C98.4055 171.397 99.1226 171.961 99.8846 172.332C100.034 172.436 100.203 172.532 100.391 172.623C102.763 173.751 105.449 175.194 107.097 176.124C109.036 177.218 110.847 174.711 108.988 173.022C109.953 173.621 110.835 174.174 111.527 174.622C113.655 176.001 115.768 173.576 114.115 171.503C114.435 171.762 114.737 172.007 115.005 172.226C117.395 174.175 120.264 171.649 117.872 168.684C115.92 166.264 112.858 162.708 112.858 162.708C115.326 163.957 116.824 164.597 118.456 165.499C120.984 166.898 122.753 163.547 119.83 161.51Z" fill="#B3614E"/>
<path d="M100.337 160.961C99.1334 162.424 97.3571 164.686 96.853 166.898" stroke="#893B2E" stroke-linecap="round"/>
<path d="M113.55 170.804L108.594 166.563" stroke="#893B2E" stroke-linecap="round"/>
<path d="M108.139 172.497L104.202 169.544" stroke="#893B2E" stroke-linecap="round"/>
</g>
</svg>
