<svg width="30" height="30" viewBox="0 0 30 30" fill="none" xmlns="http://www.w3.org/2000/svg">
<circle cx="15" cy="15" r="4" stroke="#1E1E1E" stroke-width="1.5" stroke-linecap="round" stroke-linejoin="round"/>
<path fill-rule="evenodd" clip-rule="evenodd" d="M24.4182 18.8182C24.0716 19.6036 24.2379 20.5209 24.8382 21.1345L24.9145 21.2109C25.3925 21.6884 25.6611 22.3362 25.6611 23.0118C25.6611 23.6874 25.3925 24.3353 24.9145 24.8127C24.4371 25.2907 23.7892 25.5593 23.1136 25.5593C22.438 25.5593 21.7902 25.2907 21.3127 24.8127L21.2364 24.7364C20.6227 24.1361 19.7054 23.9697 18.92 24.3164C18.1507 24.6461 17.6506 25.4012 17.6473 26.2382V26.4545C17.6473 27.8604 16.5076 29 15.1018 29C13.696 29 12.5564 27.8604 12.5564 26.4545V26.34C12.5362 25.4779 11.9911 24.7158 11.1818 24.4182C10.3964 24.0716 9.47915 24.2379 8.86545 24.8382L8.78909 24.9145C8.31164 25.3925 7.66377 25.6611 6.98818 25.6611C6.31259 25.6611 5.66472 25.3925 5.18727 24.9145C4.70929 24.4371 4.44072 23.7892 4.44072 23.1136C4.44072 22.438 4.70929 21.7902 5.18727 21.3127L5.26364 21.2364C5.86394 20.6227 6.03026 19.7054 5.68364 18.92C5.35391 18.1507 4.59882 17.6506 3.76182 17.6473H3.54545C2.13964 17.6473 1 16.5076 1 15.1018C1 13.696 2.13964 12.5564 3.54545 12.5564H3.66C4.52206 12.5362 5.28417 11.9911 5.58182 11.1818C5.92844 10.3964 5.76212 9.47915 5.16182 8.86545L5.08545 8.78909C4.60748 8.31164 4.33891 7.66377 4.33891 6.98818C4.33891 6.31259 4.60748 5.66472 5.08545 5.18727C5.5629 4.70929 6.21078 4.44072 6.88636 4.44072C7.56195 4.44072 8.20983 4.70929 8.68727 5.18727L8.76364 5.26364C9.37733 5.86394 10.2946 6.03026 11.08 5.68364H11.1818C11.9511 5.35391 12.4512 4.59882 12.4545 3.76182V3.54545C12.4545 2.13964 13.5942 1 15 1C16.4058 1 17.5455 2.13964 17.5455 3.54545V3.66C17.5488 4.497 18.0489 5.25209 18.8182 5.58182C19.6036 5.92844 20.5209 5.76212 21.1345 5.16182L21.2109 5.08545C21.6884 4.60748 22.3362 4.33891 23.0118 4.33891C23.6874 4.33891 24.3353 4.60748 24.8127 5.08545C25.2907 5.5629 25.5593 6.21078 25.5593 6.88636C25.5593 7.56195 25.2907 8.20983 24.8127 8.68727L24.7364 8.76364C24.1361 9.37733 23.9697 10.2946 24.3164 11.08V11.1818C24.6461 11.9511 25.4012 12.4512 26.2382 12.4545H26.4545C27.8604 12.4545 29 13.5942 29 15C29 16.4058 27.8604 17.5455 26.4545 17.5455H26.34C25.503 17.5488 24.7479 18.0489 24.4182 18.8182Z" stroke="#1E1E1E" stroke-width="1.5" stroke-linecap="round" stroke-linejoin="round"/>
</svg>
