<svg width="17" height="15" viewBox="0 0 17 15" fill="none" xmlns="http://www.w3.org/2000/svg">
<path fill-rule="evenodd" clip-rule="evenodd" d="M2.42857 7.45242C2.42857 3.42868 5.6905 0.166748 9.71429 0.166748C13.7381 0.166748 17 3.42868 17 7.45242C17 11.4762 13.7381 14.7381 9.71429 14.7381C7.69048 14.7381 5.88524 13.9286 4.56571 12.601L5.71524 11.4515C6.73524 12.4796 8.15191 13.1191 9.71429 13.1191C12.8439 13.1191 15.381 10.582 15.381 7.45242C15.381 4.32285 12.8439 1.7858 9.71429 1.7858C6.58467 1.7858 4.04762 4.32285 4.04762 7.45242H6.47619L3.20571 10.7148L0 7.45242H2.42857ZM8.90476 4.21438H10.119V7.65488L12.9524 9.33869L12.3695 10.3182L8.90476 8.26203V4.21438Z" fill="black"/>
</svg>
