<svg width="26" height="26" viewBox="0 0 26 26" fill="none" xmlns="http://www.w3.org/2000/svg">
<path d="M11.6667 14.3333V15.0833H12.4167V14.3333H11.6667ZM11.6667 1H12.4167V0.25H11.6667V1ZM1 1V0.25H0.25V1H1ZM11.6667 25V25.75H12.4167V25H11.6667ZM11.6667 17H12.4167V16.25H11.6667V17ZM1 17V16.25H0.25V17H1ZM25 25V25.75H25.75V25H25ZM25 11.6667H25.75V10.9167H25V11.6667ZM14.3333 11.6667V10.9167H13.5833V11.6667H14.3333ZM14.3333 9H13.5833V9.75H14.3333V9ZM25 9V9.75H25.75V9H25ZM25 1H25.75V0.25H25V1ZM1 15.0833H11.6667V13.5833H1V15.0833ZM12.4167 14.3333V1H10.9167V14.3333H12.4167ZM11.6667 0.25H1V1.75H11.6667V0.25ZM0.25 1V14.3333H1.75V1H0.25ZM1 25.75H11.6667V24.25H1V25.75ZM12.4167 25V17H10.9167V25H12.4167ZM11.6667 16.25H1V17.75H11.6667V16.25ZM0.25 17V25H1.75V17H0.25ZM14.3333 25.75H25V24.25H14.3333V25.75ZM25.75 25V11.6667H24.25V25H25.75ZM25 10.9167H14.3333V12.4167H25V10.9167ZM13.5833 11.6667V25H15.0833V11.6667H13.5833ZM13.5833 1V9H15.0833V1H13.5833ZM14.3333 9.75H25V8.25H14.3333V9.75ZM25.75 9V1H24.25V9H25.75ZM25 0.25H14.3333V1.75H25V0.25Z" fill="#1E1E1E"/>
<mask id="mask0_5286_155" style="mask-type:luminance" maskUnits="userSpaceOnUse" x="0" y="0" width="26" height="26">
<path fill-rule="evenodd" clip-rule="evenodd" d="M1 14.3333H11.6667V1H1V14.3333ZM1 25H11.6667V17H1V25ZM14.3333 25H25V11.6667H14.3333V25ZM14.3333 1V9H25V1H14.3333Z" fill="white"/>
<path d="M11.6667 14.3333V15.0833H12.4167V14.3333H11.6667ZM11.6667 1H12.4167V0.25H11.6667V1ZM1 1V0.25H0.25V1H1ZM11.6667 25V25.75H12.4167V25H11.6667ZM11.6667 17H12.4167V16.25H11.6667V17ZM1 17V16.25H0.25V17H1ZM25 25V25.75H25.75V25H25ZM25 11.6667H25.75V10.9167H25V11.6667ZM14.3333 11.6667V10.9167H13.5833V11.6667H14.3333ZM14.3333 9H13.5833V9.75H14.3333V9ZM25 9V9.75H25.75V9H25ZM25 1H25.75V0.25H25V1ZM1 15.0833H11.6667V13.5833H1V15.0833ZM12.4167 14.3333V1H10.9167V14.3333H12.4167ZM11.6667 0.25H1V1.75H11.6667V0.25ZM0.25 1V14.3333H1.75V1H0.25ZM1 25.75H11.6667V24.25H1V25.75ZM12.4167 25V17H10.9167V25H12.4167ZM11.6667 16.25H1V17.75H11.6667V16.25ZM0.25 17V25H1.75V17H0.25ZM14.3333 25.75H25V24.25H14.3333V25.75ZM25.75 25V11.6667H24.25V25H25.75ZM25 10.9167H14.3333V12.4167H25V10.9167ZM13.5833 11.6667V25H15.0833V11.6667H13.5833ZM13.5833 1V9H15.0833V1H13.5833ZM14.3333 9.75H25V8.25H14.3333V9.75ZM25.75 9V1H24.25V9H25.75ZM25 0.25H14.3333V1.75H25V0.25Z" fill="white"/>
</mask>
<g mask="url(#mask0_5286_155)">
</g>
</svg>
